<svg width="17" height="16" viewBox="0 0 17 16" fill="none" xmlns="http://www.w3.org/2000/svg">
<path d="M12.1729 6.13332C12.1729 7.09629 12.1729 8.05925 12.1729 9.02221C12.1729 9.76702 12.3586 10.3518 12.7299 10.7766C12.8728 10.9402 12.7614 11.3333 12.5442 11.3333H3.7585C3.54123 11.3333 3.42981 10.9402 3.57279 10.7766C3.94407 10.3518 4.12971 9.76702 4.12971 9.02221C4.12971 8.05925 4.12971 7.09629 4.12971 6.13332C4.12971 4.21874 5.93025 2.66666 8.15133 2.66666C10.3724 2.66666 12.1729 4.21874 12.1729 6.13332Z" stroke="#405175" stroke-linecap="round" stroke-linejoin="round"/>
<path d="M6.47567 11.3333C6.47567 12.4379 7.2259 13.3333 8.15135 13.3333C9.0768 13.3333 9.82703 12.4379 9.82703 11.3333" stroke="#405175" stroke-linecap="round" stroke-linejoin="round"/>
</svg>
