<svg width="17" height="16" viewBox="0 0 17 16" fill="none" xmlns="http://www.w3.org/2000/svg">
<g clip-path="url(#clip0_130_225)">
<path d="M9.65195 9.21522C9.6009 9.34215 9.50006 9.44261 9.37294 9.49319L5.91674 10.8685C5.50826 11.0311 5.10393 10.6252 5.268 10.2174L6.64876 6.78474C6.69982 6.65782 6.80066 6.55735 6.92777 6.50677L10.384 5.13143C10.7925 4.96888 11.1968 5.37472 11.0327 5.78259L9.65195 9.21522Z" stroke="#405175" stroke-linecap="round" stroke-linejoin="round"/>
<path d="M8.15149 14.6667C11.8533 14.6667 14.8542 11.6819 14.8542 8.00001C14.8542 4.31811 11.8533 1.33334 8.15149 1.33334C4.44969 1.33334 1.44879 4.31811 1.44879 8.00001C1.44879 11.6819 4.44969 14.6667 8.15149 14.6667Z" stroke="#405175" stroke-linecap="round" stroke-linejoin="round"/>
</g>
<defs>
<clipPath id="clip0_130_225">
<rect width="16.0865" height="16" fill="white" transform="translate(0.108093)"/>
</clipPath>
</defs>
</svg>
